<svg width="17" height="18" viewBox="0 0 17 18" fill="none" xmlns="http://www.w3.org/2000/svg">
<g id="autorenew">
<mask id="mask0_107_2451" style="mask-type:alpha" maskUnits="userSpaceOnUse" x="0" y="0" width="17" height="18">
<rect id="Bounding box" y="0.5" width="17" height="17" fill="#D9D9D9"/>
</mask>
<g mask="url(#mask0_107_2451)">
<path id="autorenew_2" d="M3.6125 11.8688C3.35278 11.4201 3.15798 10.9597 3.02812 10.4875C2.89826 10.0153 2.83333 9.53125 2.83333 9.03542C2.83333 7.45347 3.38229 6.10764 4.48021 4.99792C5.57812 3.8882 6.91805 3.33334 8.5 3.33334H8.62396L7.49062 2.2L8.48229 1.20834L11.3156 4.04167L8.48229 6.875L7.49062 5.88334L8.62396 4.75H8.5C7.31944 4.75 6.31597 5.16615 5.48958 5.99844C4.66319 6.83073 4.25 7.84306 4.25 9.03542C4.25 9.34236 4.28542 9.6434 4.35625 9.93854C4.42708 10.2337 4.53333 10.5229 4.675 10.8063L3.6125 11.8688ZM8.51771 16.7917L5.68437 13.9583L8.51771 11.125L9.50937 12.1167L8.37604 13.25H8.5C9.68055 13.25 10.684 12.8339 11.5104 12.0016C12.3368 11.1693 12.75 10.1569 12.75 8.96459C12.75 8.65764 12.7146 8.3566 12.6437 8.06146C12.5729 7.76632 12.4667 7.47709 12.325 7.19375L13.3875 6.13125C13.6472 6.57986 13.842 7.04028 13.9719 7.5125C14.1017 7.98472 14.1667 8.46875 14.1667 8.96459C14.1667 10.5465 13.6177 11.8924 12.5198 13.0021C11.4219 14.1118 10.0819 14.6667 8.5 14.6667H8.37604L9.50937 15.8L8.51771 16.7917Z" fill="#AAAAAA"/>
</g>
</g>
</svg>
